<svg width="225" height="209" viewBox="0 0 225 209" fill="none" xmlns="http://www.w3.org/2000/svg">
<path d="M28.0614 48.8859C19.684 53.7742 9.5693 71.5608 5.49465 80.4889C-0.785699 94.25 14.455 80.4807 19.2722 77.3999C30.7281 70.0735 106.081 30.7755 99.7999 68.8457C96.6717 87.8047 87.4954 104.589 83.6469 123.26C81.053 135.844 75.9145 144.272 91.8422 141.794C107.614 139.34 130.216 132.538 145.171 141.319C154.511 146.803 151.337 157.769 142.914 162.229C126.184 171.089 103.608 175.674 84.8346 174.585C54.4329 172.822 54.9144 153.516 67.9689 130.864C89.4225 93.637 121.288 62.6259 155.385 37.0051C173.522 23.3773 195.958 7.66683 219.166 4.09522C226.61 2.9496 209.03 12.512 208.358 12.887C177.9 29.8921 149.04 55.5849 124.742 80.2513C98.3129 107.081 72.1143 142.17 63.6931 179.694C61.7329 188.428 62.6149 197.14 66.5436 205" stroke="#F43F3F" stroke-width="7" stroke-linecap="round"/>
</svg>
