<svg width="281" height="386" viewBox="0 0 281 386" fill="none" xmlns="http://www.w3.org/2000/svg">
<path d="M234.327 8C213.626 68.4676 183.069 124.236 150.925 179.507C143.411 192.427 102.337 246.603 136.965 243.067C150.373 241.698 224.749 226.261 233.611 241.647C240.292 253.243 234.046 281.634 234.327 294.2C235.544 348.518 273.84 306.929 272.986 276.445C272.188 247.938 265.949 212.898 259.742 185.188C259.343 183.407 231.575 203.141 226.453 204.718C181.43 218.579 128.206 184.736 92.5794 161.397C82.1278 154.551 -1.10009 97.4818 8.81926 97.4818C34.5647 97.4818 39.0481 123.273 37.4552 143.288C33.2533 196.087 34.5916 249.065 34.5916 302.012C34.5916 312.144 26.5224 378 44.9722 378C65.0619 378 86.1392 364.328 105.466 359.535" stroke="#DCF971" stroke-width="16" stroke-linecap="round"/>
</svg>
